<svg xmlns="http://www.w3.org/2000/svg" version="1.1" xmlns:xlink="http://www.w3.org/1999/xlink" xmlns:svgjs="http://svgjs.dev/svgjs" width="1500" height="1500" viewBox="0 0 1500 1500"><rect width="1500" height="1500" fill="#ffffff"></rect><g transform="matrix(0.3495281370150297,0,0,0.3495281370150297,487.484664575413,248.38709677419354)"><svg viewBox="0 0 130 248" data-background-color="#ffffff" preserveAspectRatio="xMidYMid meet" height="2861" width="1500" xmlns="http://www.w3.org/2000/svg" xmlns:xlink="http://www.w3.org/1999/xlink"><g id="tight-bounds" transform="matrix(1,0,0,1,0.09155246964442654,0.4000000000000057)"><svg viewBox="0 0 129.81689506071115 247.2" height="247.2" width="129.81689506071115"><g><svg viewBox="0 0 240.86153846153843 458.65349251995985" height="247.2" width="129.81689506071115"><g transform="matrix(1,0,0,1,0,211.45349251995987)"><svg viewBox="0 0 240.86153846153843 247.2" height="247.2" width="240.86153846153843"><g id="textblocktransform"><svg viewBox="0 0 240.86153846153843 247.2" height="247.2" width="240.86153846153843" id="textblock"><g><svg viewBox="0 0 240.86153846153843 247.2" height="247.2" width="240.86153846153843"><g transform="matrix(1,0,0,1,0,0)"><svg width="240.86153846153843" viewBox="1.55 -7.05 7.6000000000000005 7.8" height="247.2" data-palette-color="#085221"><path d="M5.35-7.05Q7.05-7.05 8.1-5.9 9.15-4.75 9.15-3.15L9.15-3.15Q9.15-1.55 8.1-0.4 7.05 0.75 5.35 0.75L5.35 0.75Q3.7 0.75 2.63-0.4 1.55-1.55 1.55-3.15L1.55-3.15Q1.55-4.75 2.63-5.9 3.7-7.05 5.35-7.05L5.35-7.05Z" opacity="1" transform="matrix(1,0,0,1,0,0)" fill="#085221" class="wordmark-text-0" data-fill-palette-color="primary" id="text-0"></path></svg></g></svg></g></svg></g></svg></g><g transform="matrix(1,0,0,1,46.00455384615384,0)"><svg viewBox="0 0 148.85243076923075 153.09550531995987" height="153.09550531995987" width="148.85243076923075"><g><svg xmlns="http://www.w3.org/2000/svg" xmlns:xlink="http://www.w3.org/1999/xlink" version="1.1" x="0" y="0" viewBox="1.3854691445134781 0 97.22897644610737 100.00051194216859" enable-background="new 0 0 100 100" xml:space="preserve" id="icon-0" width="148.85243076923075" height="153.09550531995987" class="icon-icon-0" data-fill-palette-color="accent"><path fill-rule="evenodd" clip-rule="evenodd" d="M34.299 89.102C18.86 84.527-25.674 64.976 24.795 0 52.086 18.521 62.602 34.817 64.549 48.283 51.495 52.958 42.508 62.047 43.628 78.491 36.518 61.582 30.94 38.196 28.547 23.615 27.347 40.648 29.86 70.944 34.299 89.102" fill="#015e2c" data-fill-palette-color="accent"></path><path fill-rule="evenodd" clip-rule="evenodd" d="M51.772 93.184C48.014 82.738 40.207 48.778 98.54 50.65 100.252 103.998 71.996 102.029 59.164 98.428 64.476 88.088 71.314 78.756 79.967 70.877 69.352 76.754 59.899 84.209 51.772 93.184" fill="#015e2c" data-fill-palette-color="accent"></path></svg></g></svg></g><g></g></svg></g><defs></defs></svg><rect width="129.81689506071115" height="247.2" fill="none" stroke="none" visibility="hidden"></rect></g></svg></g></svg>